# xmcd CD database file generated by LOLA_Freedb v0.9beta0
# 
# Track frame offsets:
#      150
#      24983
#      44773
#      63961
#      85450
#      102566
#      122963
#      137808
#      157839
# 
# Disc length: 2332 seconds
# 
# Revision: 0 
# Processed by: cddbd v1.5.2PL0 Copyright (c) Steve Scherf et al.
# Submitted via: LOLA_Freedb v0.9beta0
# 
DISCID=7a091a09
DTITLE=Werner Lämmerhirt - Crossroads
DYEAR=1982
DGENRE=
TTITLE0=Still I Think Of You
TTITLE1=This Old World
TTITLE2=I Want
TTITLE3=Private Tune
TTITLE4=Laura´s Dance
TTITLE5=Solo Trip
TTITLE6=A Week In A Life
TTITLE7=Two Times Love
TTITLE8=The Survivor
EXTD=
EXTT0=
EXTT1=
EXTT2=
EXTT3=
EXTT4=
EXTT5=
EXTT6=
EXTT7=
EXTT8=
PLAYORDER=
